<svg xmlns="http://www.w3.org/2000/svg" xmlns:xlink="http://www.w3.org/1999/xlink" width="500" zoomAndPan="magnify" viewBox="0 0 375 374.999991" height="500" preserveAspectRatio="xMidYMid meet" version="1.0"><defs><g/></defs><g fill="#ffffff" fill-opacity="1"><g transform="translate(0.587498, 204.949995)"><g><path d="M 66.78125 -58.4375 L 66.78125 -43.5 L 21.796875 -26.90625 L 66.78125 -9.921875 L 66.78125 5.015625 L 4.640625 -19.84375 L 4.640625 -33.578125 Z M 66.78125 -58.4375 "/></g></g></g><g fill="#ffffff" fill-opacity="1"><g transform="translate(72.008354, 204.949995)"><g><path d="M 19.296875 -62.140625 L 19.296875 0 L 4.640625 0 L 4.640625 -62.140625 Z M 19.296875 -62.140625 "/></g></g></g><g fill="#ffffff" fill-opacity="1"><g transform="translate(95.938978, 204.949995)"><g><path d="M 4.640625 -62.140625 L 66.78125 -62.140625 L 66.78125 -23.75 L 19.296875 -23.75 L 19.296875 -14.65625 L 66.78125 -14.65625 L 66.78125 0 L 4.640625 0 L 4.640625 -38.40625 L 52.125 -38.40625 L 52.125 -47.5 L 4.640625 -47.5 Z M 4.640625 -62.140625 "/></g></g></g><g fill="#ffffff" fill-opacity="1"><g transform="translate(167.359834, 204.949995)"><g><path d="M 4.640625 -62.140625 L 66.78125 -62.140625 L 66.78125 -23.75 L 19.296875 -23.75 L 19.296875 -14.65625 L 66.78125 -14.65625 L 66.78125 0 L 4.640625 0 L 4.640625 -38.40625 L 52.125 -38.40625 L 52.125 -47.5 L 4.640625 -47.5 Z M 4.640625 -62.140625 "/></g></g></g><g fill="#ffffff" fill-opacity="1"><g transform="translate(238.78069, 204.949995)"><g><path d="M 4.640625 0 L 41.734375 -62.140625 L 59.546875 -62.140625 L 22.90625 0 Z M 4.640625 0 "/></g></g></g><g fill="#ffffff" fill-opacity="1"><g transform="translate(302.966706, 204.949995)"><g><path d="M 66.78125 -33.578125 L 66.78125 -19.84375 L 4.640625 5.015625 L 4.640625 -9.921875 L 49.625 -26.90625 L 4.640625 -43.5 L 4.640625 -58.4375 Z M 66.78125 -33.578125 "/></g></g></g><g fill="#ffffff" fill-opacity="1"><g transform="translate(26.135939, 256.750646)"><g><path d="M 22.5 -20.9375 L 22.5 0 L 17.5625 0 L 17.5625 -4 L 6.5 -4 L 6.5 0 L 1.5625 0 L 1.5625 -20.9375 Z M 6.5 -8.9375 L 17.5625 -8.9375 L 17.5625 -16 L 6.5 -16 Z M 6.5 -8.9375 "/></g></g></g><g fill="#ffffff" fill-opacity="1"><g transform="translate(50.192562, 256.750646)"><g><path d="M 22.5 0 L 1.5625 0 L 1.5625 -20.9375 L 6.5 -20.9375 L 6.5 -4.9375 L 22.5 -4.9375 Z M 22.5 0 "/></g></g></g><g fill="#ffffff" fill-opacity="1"><g transform="translate(66.594131, 256.750646)"><g><path d="M 1.5625 -20.9375 L 22.5 -20.9375 L 22.5 -16 L 14.5 -16 L 14.5 0 L 9.5625 0 L 9.5625 -16 L 1.5625 -16 Z M 1.5625 -20.9375 "/></g></g></g><g fill="#ffffff" fill-opacity="1"><g transform="translate(90.650754, 256.750646)"><g><path d="M 6.5 -14.5 L 6.5 0 L 1.5625 0 L 1.5625 -14.5 Z M 1.5625 -16 L 1.5625 -20.9375 L 6.5 -20.9375 L 6.5 -16 Z M 1.5625 -16 "/></g></g></g><g fill="#ffffff" fill-opacity="1"><g transform="translate(98.711285, 256.750646)"><g><path d="M 22.5 -16 L 6.5 -16 L 6.5 -12.9375 L 22.5 -12.9375 L 22.5 -8 L 6.5 -8 L 6.5 -4.9375 L 22.5 -4.9375 L 22.5 0 L 1.5625 0 L 1.5625 -20.9375 L 22.5 -20.9375 Z M 22.5 -16 "/></g></g></g><g fill="#ffffff" fill-opacity="1"><g transform="translate(122.767909, 256.750646)"><g><path d="M 6.5 -20.9375 L 6.5 0 L 1.5625 0 L 1.5625 -20.9375 Z M 6.5 -20.9375 "/></g></g></g><g fill="#ffffff" fill-opacity="1"><g transform="translate(130.82844, 256.750646)"><g><path d="M 1.5625 -20.9375 L 22.5 -20.9375 L 22.5 -8 L 6.5 -8 L 6.5 -4.9375 L 22.5 -4.9375 L 22.5 0 L 1.5625 0 L 1.5625 -12.9375 L 17.5625 -12.9375 L 17.5625 -16 L 1.5625 -16 Z M 1.5625 -20.9375 "/></g></g></g><g fill="#ffffff" fill-opacity="1"><g transform="translate(154.885063, 256.750646)"><g><path d="M 1.5625 -20.9375 L 22.5 -20.9375 L 22.5 -8 L 6.5 -8 L 6.5 -4.9375 L 22.5 -4.9375 L 22.5 0 L 1.5625 0 L 1.5625 -12.9375 L 17.5625 -12.9375 L 17.5625 -16 L 1.5625 -16 Z M 1.5625 -20.9375 "/></g></g></g><g fill="#ffffff" fill-opacity="1"><g transform="translate(178.941686, 256.750646)"><g/></g></g><g fill="#ffffff" fill-opacity="1"><g transform="translate(197.687107, 256.750646)"><g><path d="M 1.5625 -4.9375 L 17.5625 -4.9375 L 17.5625 -8 L 1.5625 -8 L 1.5625 -20.9375 L 22.5 -20.9375 L 22.5 -16 L 6.5 -16 L 6.5 -12.9375 L 22.5 -12.9375 L 22.5 0 L 1.5625 0 Z M 1.5625 -4.9375 "/></g></g></g><g fill="#ffffff" fill-opacity="1"><g transform="translate(220.49391, 256.750646)"><g><path d="M 1.5625 -20.9375 L 22.5 -20.9375 L 22.5 -16 L 14.5 -16 L 14.5 0 L 9.5625 0 L 9.5625 -16 L 1.5625 -16 Z M 1.5625 -20.9375 "/></g></g></g><g fill="#ffffff" fill-opacity="1"><g transform="translate(244.550534, 256.750646)"><g><path d="M 6.5 -20.9375 L 6.5 -4.9375 L 17.5625 -4.9375 L 17.5625 -20.9375 L 22.5 -20.9375 L 22.5 0 L 1.5625 0 L 1.5625 -20.9375 Z M 6.5 -20.9375 "/></g></g></g><g fill="#ffffff" fill-opacity="1"><g transform="translate(268.607157, 256.750646)"><g><path d="M 6.5 -4.9375 L 17.5625 -4.9375 L 17.5625 -16 L 1.5625 -16 L 1.5625 -20.9375 L 22.5 -20.9375 L 22.5 0 L 1.5625 0 L 1.5625 -12.9375 L 6.5 -12.9375 Z M 6.5 -4.9375 "/></g></g></g><g fill="#ffffff" fill-opacity="1"><g transform="translate(292.663781, 256.750646)"><g><path d="M 6.5 -14.5 L 6.5 0 L 1.5625 0 L 1.5625 -14.5 Z M 1.5625 -16 L 1.5625 -20.9375 L 6.5 -20.9375 L 6.5 -16 Z M 1.5625 -16 "/></g></g></g><g fill="#ffffff" fill-opacity="1"><g transform="translate(300.724312, 256.750646)"><g><path d="M 6.5 -16 L 6.5 -4.9375 L 17.5625 -4.9375 L 17.5625 -16 Z M 1.5625 0 L 1.5625 -20.9375 L 22.5 -20.9375 L 22.5 0 Z M 1.5625 0 "/></g></g></g><g fill="#ffffff" fill-opacity="1"><g transform="translate(324.780935, 256.750646)"><g><path d="M 1.5625 -4.9375 L 17.5625 -4.9375 L 17.5625 -8 L 1.5625 -8 L 1.5625 -20.9375 L 22.5 -20.9375 L 22.5 -16 L 6.5 -16 L 6.5 -12.9375 L 22.5 -12.9375 L 22.5 0 L 1.5625 0 Z M 1.5625 -4.9375 "/></g></g></g></svg>