<svg xmlns="http://www.w3.org/2000/svg" xmlns:xlink="http://www.w3.org/1999/xlink" width="4000" zoomAndPan="magnify" viewBox="0 0 3000 374.999991" height="500" preserveAspectRatio="xMidYMid meet" version="1.0"><defs><g/></defs><rect x="-300" width="3600" fill="#ffffff" y="-37.499999" height="449.999989" fill-opacity="1"/><rect x="-300" width="3600" fill="#000000" y="-37.499999" height="449.999989" fill-opacity="1"/><g fill="#ffffff" fill-opacity="1"><g transform="translate(1.523473, 281.999981)"><g><path d="M 172.515625 -150.953125 L 172.515625 -112.375 L 56.3125 -69.484375 L 172.515625 -25.640625 L 172.515625 12.9375 L 11.984375 -51.28125 L 11.984375 -86.734375 Z M 172.515625 -150.953125 "/></g></g><g transform="translate(186.018927, 281.999981)"><g><path d="M 49.84375 -160.53125 L 49.84375 0 L 11.984375 0 L 11.984375 -160.53125 Z M 49.84375 -160.53125 "/></g></g><g transform="translate(247.836885, 281.999981)"><g><path d="M 11.984375 -160.53125 L 172.515625 -160.53125 L 172.515625 -61.34375 L 49.84375 -61.34375 L 49.84375 -37.859375 L 172.515625 -37.859375 L 172.515625 0 L 11.984375 0 L 11.984375 -99.203125 L 134.65625 -99.203125 L 134.65625 -122.6875 L 11.984375 -122.6875 Z M 11.984375 -160.53125 "/></g></g><g transform="translate(432.332339, 281.999981)"><g><path d="M 11.984375 -160.53125 L 172.515625 -160.53125 L 172.515625 -61.34375 L 49.84375 -61.34375 L 49.84375 -37.859375 L 172.515625 -37.859375 L 172.515625 0 L 11.984375 0 L 11.984375 -99.203125 L 134.65625 -99.203125 L 134.65625 -122.6875 L 11.984375 -122.6875 Z M 11.984375 -160.53125 "/></g></g><g transform="translate(616.827793, 281.999981)"><g><path d="M 11.984375 0 L 107.828125 -160.53125 L 153.828125 -160.53125 L 59.1875 0 Z M 11.984375 0 "/></g></g><g transform="translate(782.634095, 281.999981)"><g><path d="M 172.515625 -86.734375 L 172.515625 -51.28125 L 11.984375 12.9375 L 11.984375 -25.640625 L 128.1875 -69.484375 L 11.984375 -112.375 L 11.984375 -150.953125 Z M 172.515625 -86.734375 "/></g></g></g><g fill="#ffffff" fill-opacity="1"><g transform="translate(982.309535, 264.374983)"><g><path d="M 140.625 -130.859375 L 140.625 0 L 109.765625 0 L 109.765625 -25 L 40.625 -25 L 40.625 0 L 9.765625 0 L 9.765625 -130.859375 Z M 40.625 -55.859375 L 109.765625 -55.859375 L 109.765625 -100 L 40.625 -100 Z M 40.625 -55.859375 "/></g></g><g transform="translate(1132.696392, 264.374983)"><g><path d="M 140.625 0 L 9.765625 0 L 9.765625 -130.859375 L 40.625 -130.859375 L 40.625 -30.859375 L 140.625 -30.859375 Z M 140.625 0 "/></g></g></g><g fill="#ffffff" fill-opacity="1"><g transform="translate(1235.232874, 264.374983)"><g><path d="M 9.765625 -130.859375 L 140.625 -130.859375 L 140.625 -100 L 90.625 -100 L 90.625 0 L 59.765625 0 L 59.765625 -100 L 9.765625 -100 Z M 9.765625 -130.859375 "/></g></g></g><g fill="#ffffff" fill-opacity="1"><g transform="translate(1385.619721, 264.374983)"><g><path d="M 40.625 -90.625 L 40.625 0 L 9.765625 0 L 9.765625 -90.625 Z M 9.765625 -100 L 9.765625 -130.859375 L 40.625 -130.859375 L 40.625 -100 Z M 9.765625 -100 "/></g></g></g><g fill="#ffffff" fill-opacity="1"><g transform="translate(1436.009107, 264.374983)"><g><path d="M 140.625 -100 L 40.625 -100 L 40.625 -80.859375 L 140.625 -80.859375 L 140.625 -50 L 40.625 -50 L 40.625 -30.859375 L 140.625 -30.859375 L 140.625 0 L 9.765625 0 L 9.765625 -130.859375 L 140.625 -130.859375 Z M 140.625 -100 "/></g></g></g><g fill="#ffffff" fill-opacity="1"><g transform="translate(1586.395955, 264.374983)"><g><path d="M 40.625 -130.859375 L 40.625 0 L 9.765625 0 L 9.765625 -130.859375 Z M 40.625 -130.859375 "/></g></g></g><g fill="#ffffff" fill-opacity="1"><g transform="translate(1636.78534, 264.374983)"><g><path d="M 9.765625 -130.859375 L 140.625 -130.859375 L 140.625 -50 L 40.625 -50 L 40.625 -30.859375 L 140.625 -30.859375 L 140.625 0 L 9.765625 0 L 9.765625 -80.859375 L 109.765625 -80.859375 L 109.765625 -100 L 9.765625 -100 Z M 9.765625 -130.859375 "/></g></g></g><g fill="#ffffff" fill-opacity="1"><g transform="translate(1787.172188, 264.374983)"><g><path d="M 9.765625 -130.859375 L 140.625 -130.859375 L 140.625 -50 L 40.625 -50 L 40.625 -30.859375 L 140.625 -30.859375 L 140.625 0 L 9.765625 0 L 9.765625 -80.859375 L 109.765625 -80.859375 L 109.765625 -100 L 9.765625 -100 Z M 9.765625 -130.859375 "/></g></g></g><g fill="#ffffff" fill-opacity="1"><g transform="translate(1937.559081, 264.374983)"><g/></g><g transform="translate(2054.743643, 264.374983)"><g><path d="M 9.765625 -30.859375 L 109.765625 -30.859375 L 109.765625 -50 L 9.765625 -50 L 9.765625 -130.859375 L 140.625 -130.859375 L 140.625 -100 L 40.625 -100 L 40.625 -80.859375 L 140.625 -80.859375 L 140.625 0 L 9.765625 0 Z M 9.765625 -30.859375 "/></g></g></g><g fill="#ffffff" fill-opacity="1"><g transform="translate(2197.318158, 264.374983)"><g><path d="M 9.765625 -130.859375 L 140.625 -130.859375 L 140.625 -100 L 90.625 -100 L 90.625 0 L 59.765625 0 L 59.765625 -100 L 9.765625 -100 Z M 9.765625 -130.859375 "/></g></g></g><g fill="#ffffff" fill-opacity="1"><g transform="translate(2347.705051, 264.374983)"><g><path d="M 40.625 -130.859375 L 40.625 -30.859375 L 109.765625 -30.859375 L 109.765625 -130.859375 L 140.625 -130.859375 L 140.625 0 L 9.765625 0 L 9.765625 -130.859375 Z M 40.625 -130.859375 "/></g></g></g><g fill="#ffffff" fill-opacity="1"><g transform="translate(2498.091854, 264.374983)"><g><path d="M 40.625 -30.859375 L 109.765625 -30.859375 L 109.765625 -100 L 9.765625 -100 L 9.765625 -130.859375 L 140.625 -130.859375 L 140.625 0 L 9.765625 0 L 9.765625 -80.859375 L 40.625 -80.859375 Z M 40.625 -30.859375 "/></g></g></g><g fill="#ffffff" fill-opacity="1"><g transform="translate(2648.478746, 264.374983)"><g><path d="M 40.625 -90.625 L 40.625 0 L 9.765625 0 L 9.765625 -90.625 Z M 9.765625 -100 L 9.765625 -130.859375 L 40.625 -130.859375 L 40.625 -100 Z M 9.765625 -100 "/></g></g></g><g fill="#ffffff" fill-opacity="1"><g transform="translate(2698.868086, 264.374983)"><g><path d="M 40.625 -100 L 40.625 -30.859375 L 109.765625 -30.859375 L 109.765625 -100 Z M 9.765625 0 L 9.765625 -130.859375 L 140.625 -130.859375 L 140.625 0 Z M 9.765625 0 "/></g></g></g><g fill="#ffffff" fill-opacity="1"><g transform="translate(2849.254979, 264.374983)"><g><path d="M 9.765625 -30.859375 L 109.765625 -30.859375 L 109.765625 -50 L 9.765625 -50 L 9.765625 -130.859375 L 140.625 -130.859375 L 140.625 -100 L 40.625 -100 L 40.625 -80.859375 L 140.625 -80.859375 L 140.625 0 L 9.765625 0 Z M 9.765625 -30.859375 "/></g></g></g></svg>