<svg xmlns="http://www.w3.org/2000/svg" xmlns:xlink="http://www.w3.org/1999/xlink" width="4000" zoomAndPan="magnify" viewBox="0 0 3000 374.999991" height="500" preserveAspectRatio="xMidYMid meet" version="1.0"><defs><g/><clipPath id="d789a5faad"><rect x="0" width="2964" y="0" height="347"/></clipPath></defs><rect x="-300" width="3600" fill="#ffffff" y="-37.499999" height="449.999989" fill-opacity="1"/><rect x="-300" width="3600" fill="#ffffff" y="-37.499999" height="449.999989" fill-opacity="1"/><g transform="matrix(1, 0, 0, 1, 18, 13)"><g clip-path="url(#d789a5faad)"><g fill="#000000" fill-opacity="1"><g transform="translate(0.750035, 287.392433)"><g><path d="M 206.515625 -192.171875 L 206.515625 0 L 161.1875 0 L 161.1875 -36.71875 L 59.65625 -36.71875 L 59.65625 0 L 14.34375 0 L 14.34375 -192.171875 Z M 59.65625 -82.03125 L 161.1875 -82.03125 L 161.1875 -146.859375 L 59.65625 -146.859375 Z M 59.65625 -82.03125 "/></g></g><g transform="translate(221.596103, 287.392433)"><g><path d="M 206.515625 0 L 14.34375 0 L 14.34375 -192.171875 L 59.65625 -192.171875 L 59.65625 -45.3125 L 206.515625 -45.3125 Z M 206.515625 0 "/></g></g></g><g fill="#000000" fill-opacity="1"><g transform="translate(372.172951, 287.392433)"><g><path d="M 14.34375 -192.171875 L 206.515625 -192.171875 L 206.515625 -146.859375 L 133.078125 -146.859375 L 133.078125 0 L 87.765625 0 L 87.765625 -146.859375 L 14.34375 -146.859375 Z M 14.34375 -192.171875 "/></g></g></g><g fill="#000000" fill-opacity="1"><g transform="translate(593.019006, 287.392433)"><g><path d="M 59.65625 -133.078125 L 59.65625 0 L 14.34375 0 L 14.34375 -133.078125 Z M 14.34375 -146.859375 L 14.34375 -192.171875 L 59.65625 -192.171875 L 59.65625 -146.859375 Z M 14.34375 -146.859375 "/></g></g></g><g fill="#000000" fill-opacity="1"><g transform="translate(667.016814, 287.392433)"><g><path d="M 206.515625 -146.859375 L 59.65625 -146.859375 L 59.65625 -118.75 L 206.515625 -118.75 L 206.515625 -73.421875 L 59.65625 -73.421875 L 59.65625 -45.3125 L 206.515625 -45.3125 L 206.515625 0 L 14.34375 0 L 14.34375 -192.171875 L 206.515625 -192.171875 Z M 206.515625 -146.859375 "/></g></g></g><g fill="#000000" fill-opacity="1"><g transform="translate(887.862869, 287.392433)"><g><path d="M 59.65625 -192.171875 L 59.65625 0 L 14.34375 0 L 14.34375 -192.171875 Z M 59.65625 -192.171875 "/></g></g></g><g fill="#000000" fill-opacity="1"><g transform="translate(961.860676, 287.392433)"><g><path d="M 14.34375 -192.171875 L 206.515625 -192.171875 L 206.515625 -73.421875 L 59.65625 -73.421875 L 59.65625 -45.3125 L 206.515625 -45.3125 L 206.515625 0 L 14.34375 0 L 14.34375 -118.75 L 161.1875 -118.75 L 161.1875 -146.859375 L 14.34375 -146.859375 Z M 14.34375 -192.171875 "/></g></g></g><g fill="#000000" fill-opacity="1"><g transform="translate(1182.706731, 287.392433)"><g><path d="M 14.34375 -192.171875 L 206.515625 -192.171875 L 206.515625 -73.421875 L 59.65625 -73.421875 L 59.65625 -45.3125 L 206.515625 -45.3125 L 206.515625 0 L 14.34375 0 L 14.34375 -118.75 L 161.1875 -118.75 L 161.1875 -146.859375 L 14.34375 -146.859375 Z M 14.34375 -192.171875 "/></g></g></g><g fill="#000000" fill-opacity="1"><g transform="translate(1403.552852, 287.392433)"><g/></g><g transform="translate(1575.640696, 287.392433)"><g><path d="M 14.34375 -45.3125 L 161.1875 -45.3125 L 161.1875 -73.421875 L 14.34375 -73.421875 L 14.34375 -192.171875 L 206.515625 -192.171875 L 206.515625 -146.859375 L 59.65625 -146.859375 L 59.65625 -118.75 L 206.515625 -118.75 L 206.515625 0 L 14.34375 0 Z M 14.34375 -45.3125 "/></g></g></g><g fill="#000000" fill-opacity="1"><g transform="translate(1785.014187, 287.392433)"><g><path d="M 14.34375 -192.171875 L 206.515625 -192.171875 L 206.515625 -146.859375 L 133.078125 -146.859375 L 133.078125 0 L 87.765625 0 L 87.765625 -146.859375 L 14.34375 -146.859375 Z M 14.34375 -192.171875 "/></g></g></g><g fill="#000000" fill-opacity="1"><g transform="translate(2005.860308, 287.392433)"><g><path d="M 59.65625 -192.171875 L 59.65625 -45.3125 L 161.1875 -45.3125 L 161.1875 -192.171875 L 206.515625 -192.171875 L 206.515625 0 L 14.34375 0 L 14.34375 -192.171875 Z M 59.65625 -192.171875 "/></g></g></g><g fill="#000000" fill-opacity="1"><g transform="translate(2226.706297, 287.392433)"><g><path d="M 59.65625 -45.3125 L 161.1875 -45.3125 L 161.1875 -146.859375 L 14.34375 -146.859375 L 14.34375 -192.171875 L 206.515625 -192.171875 L 206.515625 0 L 14.34375 0 L 14.34375 -118.75 L 59.65625 -118.75 Z M 59.65625 -45.3125 "/></g></g></g><g fill="#000000" fill-opacity="1"><g transform="translate(2447.552418, 287.392433)"><g><path d="M 59.65625 -133.078125 L 59.65625 0 L 14.34375 0 L 14.34375 -133.078125 Z M 14.34375 -146.859375 L 14.34375 -192.171875 L 59.65625 -192.171875 L 59.65625 -146.859375 Z M 14.34375 -146.859375 "/></g></g></g><g fill="#000000" fill-opacity="1"><g transform="translate(2521.550159, 287.392433)"><g><path d="M 59.65625 -146.859375 L 59.65625 -45.3125 L 161.1875 -45.3125 L 161.1875 -146.859375 Z M 14.34375 0 L 14.34375 -192.171875 L 206.515625 -192.171875 L 206.515625 0 Z M 14.34375 0 "/></g></g></g><g fill="#000000" fill-opacity="1"><g transform="translate(2742.39628, 287.392433)"><g><path d="M 14.34375 -45.3125 L 161.1875 -45.3125 L 161.1875 -73.421875 L 14.34375 -73.421875 L 14.34375 -192.171875 L 206.515625 -192.171875 L 206.515625 -146.859375 L 59.65625 -146.859375 L 59.65625 -118.75 L 206.515625 -118.75 L 206.515625 0 L 14.34375 0 Z M 14.34375 -45.3125 "/></g></g></g></g></g></svg>